<?xml version="1.0" encoding="UTF-8"?>
<svg width="32px" height="32px" viewBox="0 0 32 32" version="1.1" xmlns="http://www.w3.org/2000/svg" xmlns:xlink="http://www.w3.org/1999/xlink">
    <!-- Generator: Sketch 52.5 (67469) - http://www.bohemiancoding.com/sketch -->
    <title>tick-lg</title>
    <desc>Created with Sketch.</desc>
    <g id="tick-lg" stroke="none" stroke-width="1" fill="none" fill-rule="evenodd">
        <path d="M16,30 C23.7319865,30 30,23.7319865 30,16 C30,8.2680135 23.7319865,2 16,2 C8.2680135,2 2,8.2680135 2,16 C2,23.7319865 8.2680135,30 16,30 Z M16,32 C7.163444,32 0,24.836556 0,16 C0,7.163444 7.163444,0 16,0 C24.836556,0 32,7.163444 32,16 C32,24.836556 24.836556,32 16,32 Z M22.3066983,10.6991599 C22.7862971,11.065468 22.8822602,11.7492962 22.5220103,12.2334621 L15.1189797,22.1829303 C14.7892948,22.6260176 14.1628392,22.7179485 13.7197519,22.3882636 C13.7148673,22.3846292 13.710016,22.3809502 13.7051986,22.3772271 L9.80367359,19.3619947 C9.35180293,19.0127736 9.26858906,18.3633603 9.61781021,17.9114897 C9.62838028,17.8978127 9.63929164,17.8844028 9.65053399,17.8712728 C10.0489571,17.4059524 10.7392649,17.3276925 11.2317438,17.6920118 L14.1784059,19.871853 L20.7946468,10.9140668 C21.1461763,10.438128 21.8169718,10.3372743 22.2929106,10.6888038 C22.2975342,10.6922188 22.3021302,10.6956709 22.3066983,10.6991599 Z" id="Combined-Shape" fill="#0CCF96" fill-rule="nonzero"></path>
    </g>
</svg>