<svg id="svg" version="1.1" xmlns="http://www.w3.org/2000/svg" xmlns:xlink="http://www.w3.org/1999/xlink" width="400" height="400" viewBox="0, 0, 400,400"><g id="svgg"><path id="path0" d="M126.703 138.475 L 126.600 167.800 113.900 167.906 L 101.200 168.011 101.200 178.400 L 101.200 188.789 113.900 188.894 L 126.600 189.000 126.706 199.894 L 126.813 210.789 114.106 210.894 L 101.400 211.000 101.400 221.400 L 101.400 231.800 114.100 231.906 L 126.800 232.011 126.800 260.762 L 126.800 289.512 128.105 289.665 C 133.157 290.255,207.770 289.731,212.800 289.071 C 248.952 284.323,276.977 264.122,288.782 234.300 L 289.693 232.000 301.246 232.000 L 312.800 232.000 312.800 221.400 L 312.800 210.800 303.792 210.800 L 294.785 210.800 295.092 209.700 C 295.262 209.095,295.397 204.145,295.394 198.700 L 295.389 188.800 304.094 188.800 L 312.800 188.800 312.800 178.406 L 312.800 168.012 301.524 167.906 L 290.247 167.800 288.203 163.000 C 277.209 137.186,252.495 117.611,223.600 111.829 C 211.560 109.420,212.919 109.482,168.103 109.309 L 126.805 109.150 126.703 138.475 M211.400 128.763 C 232.877 131.963,249.851 141.598,260.872 156.845 C 263.802 160.899,267.200 166.646,267.200 167.549 C 267.200 167.882,251.437 168.000,207.200 168.000 L 147.200 168.000 147.200 147.971 L 147.200 127.943 177.700 128.115 C 198.401 128.231,209.228 128.440,211.400 128.763 M273.875 190.700 C 274.291 193.133,274.286 206.406,273.869 208.900 L 273.551 210.800 210.375 210.800 L 147.200 210.800 147.200 199.800 L 147.200 188.800 210.375 188.800 L 273.551 188.800 273.875 190.700 M265.541 235.266 C 257.370 250.973,240.394 263.650,221.407 268.226 C 211.168 270.693,209.390 270.796,176.900 270.798 L 147.200 270.800 147.200 251.400 L 147.200 232.000 207.220 232.000 L 267.240 232.000 265.541 235.266 " stroke="none" fill="#fcfbfb" fill-rule="evenodd"></path><path id="path1" d="M182.600 0.449 C 172.776 1.283,159.555 3.168,157.800 3.986 C 157.360 4.191,155.920 4.563,154.600 4.814 C 150.860 5.523,142.655 7.623,142.205 7.987 C 141.982 8.167,140.360 8.711,138.600 9.196 C 134.391 10.357,131.193 11.429,129.761 12.160 C 129.122 12.485,126.755 13.415,124.500 14.226 C 122.245 15.037,120.400 15.858,120.400 16.050 C 120.400 16.243,120.211 16.400,119.980 16.400 C 119.141 16.400,112.084 19.620,107.200 22.232 C 104.450 23.702,101.030 25.527,99.600 26.288 C 98.170 27.048,96.856 27.924,96.680 28.235 C 96.504 28.546,96.171 28.800,95.940 28.800 C 95.460 28.800,90.874 31.538,90.058 32.312 C 89.760 32.595,88.860 33.162,88.058 33.572 C 87.256 33.982,86.096 34.786,85.479 35.359 C 84.863 35.931,84.278 36.400,84.180 36.400 C 83.752 36.400,76.194 42.029,74.404 43.681 C 73.856 44.186,72.673 45.140,71.774 45.800 C 70.876 46.460,69.524 47.578,68.770 48.286 C 68.017 48.993,66.060 50.793,64.421 52.286 C 60.620 55.750,55.750 60.620,52.286 64.421 C 50.793 66.060,48.993 68.017,48.286 68.770 C 47.578 69.524,46.460 70.876,45.800 71.774 C 45.140 72.673,44.183 73.856,43.674 74.404 C 42.304 75.878,36.400 83.828,36.400 84.199 C 36.400 84.287,35.966 84.827,35.437 85.398 C 34.907 85.970,34.171 87.075,33.801 87.855 C 33.431 88.634,32.830 89.572,32.464 89.939 C 31.682 90.726,28.800 95.499,28.800 96.009 C 28.800 96.202,28.553 96.504,28.251 96.680 C 27.950 96.856,26.934 98.440,25.993 100.200 C 22.329 107.059,18.093 115.511,17.173 117.800 C 16.642 119.120,16.074 120.299,15.911 120.419 C 15.629 120.628,13.535 126.065,12.772 128.572 C 12.575 129.216,12.257 129.846,12.065 129.972 C 11.872 130.097,10.943 132.810,10.000 136.000 C 9.057 139.190,8.164 141.890,8.016 142.000 C 7.734 142.210,5.023 153.042,4.563 155.800 C 4.416 156.680,4.157 157.580,3.986 157.800 C 3.596 158.306,2.208 166.655,1.428 173.200 C -0.589 190.116,-0.518 212.031,1.607 228.600 C 2.280 233.847,3.666 241.771,3.987 242.200 C 4.151 242.420,4.504 243.770,4.772 245.200 C 5.487 249.016,7.608 257.326,7.987 257.795 C 8.167 258.018,8.711 259.640,9.196 261.400 C 10.357 265.609,11.429 268.807,12.160 270.239 C 12.485 270.878,13.415 273.245,14.226 275.500 C 15.037 277.755,15.858 279.600,16.050 279.600 C 16.243 279.600,16.400 279.789,16.400 280.020 C 16.400 280.859,19.620 287.916,22.232 292.800 C 23.702 295.550,25.527 298.970,26.288 300.400 C 27.048 301.830,27.924 303.144,28.235 303.320 C 28.546 303.496,28.800 303.829,28.800 304.060 C 28.800 304.540,31.538 309.126,32.312 309.942 C 32.595 310.240,33.162 311.140,33.572 311.942 C 33.982 312.744,34.786 313.904,35.359 314.521 C 35.931 315.137,36.400 315.722,36.400 315.820 C 36.400 316.248,42.029 323.806,43.681 325.596 C 44.186 326.144,45.140 327.327,45.800 328.226 C 46.460 329.124,47.578 330.476,48.286 331.230 C 48.993 331.983,50.793 333.940,52.286 335.579 C 55.750 339.380,60.620 344.250,64.421 347.714 C 66.060 349.207,68.017 351.007,68.770 351.714 C 69.524 352.422,70.876 353.540,71.774 354.200 C 72.673 354.860,73.856 355.817,74.404 356.326 C 75.878 357.696,83.828 363.600,84.199 363.600 C 84.287 363.600,84.827 364.034,85.398 364.563 C 85.970 365.093,87.075 365.829,87.855 366.199 C 88.634 366.569,89.572 367.170,89.939 367.536 C 90.726 368.318,95.499 371.200,96.009 371.200 C 96.202 371.200,96.504 371.447,96.680 371.749 C 96.856 372.050,98.440 373.066,100.200 374.007 C 107.059 377.671,115.511 381.907,117.800 382.827 C 119.120 383.358,120.299 383.926,120.419 384.089 C 120.628 384.371,126.065 386.465,128.572 387.228 C 129.216 387.425,129.846 387.743,129.972 387.935 C 130.097 388.128,132.810 389.057,136.000 390.000 C 139.190 390.943,141.890 391.836,142.000 391.984 C 142.210 392.266,153.042 394.977,155.800 395.437 C 156.680 395.584,157.580 395.843,157.800 396.014 C 158.306 396.404,166.655 397.792,173.200 398.572 C 190.116 400.589,212.031 400.518,228.600 398.393 C 233.847 397.720,241.771 396.334,242.200 396.013 C 242.420 395.849,243.770 395.496,245.200 395.228 C 249.016 394.513,257.326 392.392,257.795 392.013 C 258.018 391.833,259.640 391.289,261.400 390.804 C 265.609 389.643,268.807 388.571,270.239 387.840 C 270.878 387.515,273.245 386.585,275.500 385.774 C 277.755 384.963,279.600 384.142,279.600 383.950 C 279.600 383.757,279.789 383.600,280.020 383.600 C 280.859 383.600,287.916 380.380,292.800 377.768 C 295.550 376.298,298.970 374.473,300.400 373.712 C 301.830 372.952,303.144 372.076,303.320 371.765 C 303.496 371.454,303.829 371.200,304.060 371.200 C 304.540 371.200,309.126 368.462,309.942 367.688 C 310.240 367.405,311.140 366.838,311.942 366.428 C 312.744 366.018,313.904 365.214,314.521 364.641 C 315.137 364.069,315.722 363.600,315.820 363.600 C 316.248 363.600,323.806 357.971,325.596 356.319 C 326.144 355.814,327.327 354.860,328.226 354.200 C 329.124 353.540,330.476 352.422,331.230 351.714 C 331.983 351.007,333.940 349.207,335.579 347.714 C 339.380 344.250,344.250 339.380,347.714 335.579 C 349.207 333.940,351.007 331.983,351.714 331.230 C 352.422 330.476,353.540 329.124,354.200 328.226 C 354.860 327.327,355.817 326.144,356.326 325.596 C 357.696 324.122,363.600 316.172,363.600 315.801 C 363.600 315.713,364.034 315.173,364.563 314.602 C 365.093 314.030,365.829 312.925,366.199 312.145 C 366.569 311.366,367.170 310.428,367.536 310.061 C 368.318 309.274,371.200 304.501,371.200 303.991 C 371.200 303.798,371.447 303.496,371.749 303.320 C 372.050 303.144,373.066 301.560,374.007 299.800 C 377.671 292.941,381.907 284.489,382.827 282.200 C 383.358 280.880,383.926 279.701,384.089 279.581 C 384.371 279.372,386.465 273.935,387.228 271.428 C 387.425 270.784,387.743 270.154,387.935 270.028 C 388.128 269.903,389.057 267.190,390.000 264.000 C 390.943 260.810,391.836 258.110,391.984 258.000 C 392.266 257.790,394.977 246.958,395.437 244.200 C 395.584 243.320,395.843 242.420,396.014 242.200 C 396.404 241.694,397.792 233.345,398.572 226.800 C 400.589 209.884,400.518 187.969,398.393 171.400 C 397.720 166.153,396.334 158.229,396.013 157.800 C 395.849 157.580,395.496 156.230,395.228 154.800 C 394.513 150.984,392.392 142.674,392.013 142.205 C 391.833 141.982,391.289 140.360,390.804 138.600 C 389.643 134.391,388.571 131.193,387.840 129.761 C 387.515 129.122,386.585 126.755,385.774 124.500 C 384.963 122.245,384.142 120.400,383.950 120.400 C 383.757 120.400,383.600 120.211,383.600 119.980 C 383.600 119.141,380.380 112.084,377.768 107.200 C 376.298 104.450,374.473 101.030,373.712 99.600 C 372.952 98.170,372.076 96.856,371.765 96.680 C 371.454 96.504,371.200 96.171,371.200 95.940 C 371.200 95.460,368.462 90.874,367.688 90.058 C 367.405 89.760,366.838 88.860,366.428 88.058 C 366.018 87.256,365.214 86.096,364.641 85.479 C 364.069 84.863,363.600 84.278,363.600 84.180 C 363.600 83.752,357.971 76.194,356.319 74.404 C 355.814 73.856,354.860 72.673,354.200 71.774 C 353.540 70.876,352.422 69.524,351.714 68.770 C 351.007 68.017,349.207 66.060,347.714 64.421 C 344.250 60.620,339.380 55.750,335.579 52.286 C 333.940 50.793,331.983 48.993,331.230 48.286 C 330.476 47.578,329.124 46.460,328.226 45.800 C 327.327 45.140,326.144 44.183,325.596 43.674 C 324.122 42.304,316.172 36.400,315.801 36.400 C 315.713 36.400,315.173 35.966,314.602 35.437 C 314.030 34.907,312.925 34.171,312.145 33.801 C 311.366 33.431,310.428 32.830,310.061 32.464 C 309.274 31.682,304.501 28.800,303.991 28.800 C 303.798 28.800,303.496 28.553,303.320 28.251 C 303.144 27.950,301.560 26.934,299.800 25.993 C 292.941 22.329,284.489 18.093,282.200 17.173 C 280.880 16.642,279.701 16.074,279.581 15.911 C 279.372 15.629,273.935 13.535,271.428 12.772 C 270.784 12.575,270.154 12.257,270.028 12.065 C 269.903 11.872,267.190 10.943,264.000 10.000 C 260.810 9.057,258.110 8.164,258.000 8.016 C 257.790 7.734,246.958 5.023,244.200 4.563 C 243.320 4.416,242.420 4.157,242.200 3.986 C 241.254 3.255,226.231 1.174,216.420 0.416 C 210.167 -0.067,188.438 -0.046,182.600 0.449 M214.000 110.149 C 249.727 115.432,275.876 134.057,288.203 163.000 L 290.247 167.800 301.524 167.906 L 312.800 168.012 312.800 178.406 L 312.800 188.800 304.094 188.800 L 295.389 188.800 295.394 198.700 C 295.397 204.145,295.262 209.095,295.092 209.700 L 294.785 210.800 303.792 210.800 L 312.800 210.800 312.800 221.400 L 312.800 232.000 301.246 232.000 L 289.693 232.000 288.782 234.300 C 276.977 264.122,248.952 284.323,212.800 289.071 C 207.770 289.731,133.157 290.255,128.105 289.665 L 126.800 289.512 126.800 260.762 L 126.800 232.011 114.100 231.906 L 101.400 231.800 101.400 221.400 L 101.400 211.000 114.106 210.894 L 126.813 210.789 126.706 199.894 L 126.600 189.000 113.900 188.894 L 101.200 188.789 101.200 178.400 L 101.200 168.011 113.900 167.906 L 126.600 167.800 126.703 138.475 L 126.805 109.150 168.103 109.309 C 204.356 109.449,209.962 109.551,214.000 110.149 M147.200 147.971 L 147.200 168.000 207.200 168.000 C 251.437 168.000,267.200 167.882,267.200 167.549 C 267.200 166.646,263.802 160.899,260.872 156.845 C 249.851 141.598,232.877 131.963,211.400 128.763 C 209.228 128.440,198.401 128.231,177.700 128.115 L 147.200 127.943 147.200 147.971 M147.200 199.800 L 147.200 210.800 210.375 210.800 L 273.551 210.800 273.869 208.900 C 274.286 206.406,274.291 193.133,273.875 190.700 L 273.551 188.800 210.375 188.800 L 147.200 188.800 147.200 199.800 M147.200 251.400 L 147.200 270.800 176.900 270.798 C 209.390 270.796,211.168 270.693,221.407 268.226 C 240.394 263.650,257.370 250.973,265.541 235.266 L 267.240 232.000 207.220 232.000 L 147.200 232.000 147.200 251.400 " stroke="none" fill="#fbbb3b" fill-rule="evenodd"></path></g></svg>