<?xml version="1.0" encoding="UTF-8"?>
<svg width="32px" height="32px" viewBox="0 0 32 32" version="1.1" xmlns="http://www.w3.org/2000/svg" xmlns:xlink="http://www.w3.org/1999/xlink">
    <!-- Generator: Sketch 52.1 (67048) - http://www.bohemiancoding.com/sketch -->
    <title>resdex copy</title>
    <desc>Created with Sketch.</desc>
    <g id="resdex-copy" stroke="none" stroke-width="1" fill="none" fill-rule="evenodd">
        <circle id="Oval" fill="#9A6EE9" fill-rule="nonzero" cx="16" cy="16" r="16"></circle>
        <path d="M17.9839291,9.0012916 L17.9841141,9 C17.9940443,9.00021223 18.2731719,9.00045143 18.2830876,9.00071752 C20.992789,9.07343374 23.1550581,11.1546411 23.1608167,13.7724866 C23.1608167,13.7770048 23.160859,15.1898248 23.1609435,15.3444954 C23.1614046,16.1882518 22.4687727,16.8726205 21.6139069,16.8730756 L21.6130721,16.8730758 L20.9524426,16.8730843 C20.9255566,16.8730843 20.8987248,16.8737778 20.8719472,16.8751649 L20.8719465,16.8751514 C20.1813663,16.9109238 19.5921594,16.3873724 19.555916,15.7057667 C19.5547689,15.6841947 19.5541951,15.6625967 19.5541951,15.640995 C19.5541951,15.606369 19.5528376,14.2386498 19.5501674,14.2043643 C19.5001891,13.562642 18.9903444,12.9779052 18.3146623,12.9779052 C18.2942144,12.9779052 17.434822,12.9779052 17.4143741,12.9788443 L17.4148752,12.9753443 L14.4128608,12.9744008 C14.4128608,12.9744008 19.2648085,19.136962 20.1476069,20.2515911 C21.0304053,21.3662201 21.0304053,21.5570412 22.5974216,21.5570412 C23.3720443,21.5570412 24,22.1768364 24,22.9413925 L24,23.3439159 C24,24.2585459 23.2487835,25 22.3221109,25 L21.2812777,25 C19.0790751,25 17.886591,23.8854849 16.6756094,22.158442 C15.8486228,20.979034 12.1329923,15.8521878 12.1329923,15.8521878 L12.1329923,20.8681212 C12.1329923,21.7827512 11.3817758,22.5242054 10.4551032,22.5242054 L9.67788909,22.5242054 C8.75121653,22.5242054 8,21.7827512 8,20.8681212 L8,10.6573757 C8,9.74274571 8.75121653,9.0012916 9.67788909,9.0012916 L17.9839291,9.0012916 Z" id="Combined-Shape" fill="#FFFFFF"></path>
    </g>
</svg>